# File created by Blade
# Date/Time:  Wed Jan 21 19:19:27 2015
#---------------------------------------------------------
:version 1.10
:name HOM
:units
  mass 1.0
  length 1.000000
  angle deg
:documentation
     Acclaim Skeleton File
:root
   axis xyz
   order TX TY TZ RX RY RZ
   position 0.000000 0.000000 0.000000
   orientation 0 0 0
:bonedata
   begin
      id 1
      name RightUpLeg_dum
      direction -1.000000 0.000000 0.000000
      length 3.693983
      axis 0.0 0.0 0.0 xyz
   end
   begin
      id 2
      name LeftUpLeg_dum
      direction 1.000000 0.000000 0.000000
      length 3.693983
      axis 0.0 0.0 0.0 xyz
   end
   begin
      id 3
      name Spine_dum
      direction 0.000000 1.000000 0.000000
      length 2.392956
      axis 0.0 0.0 0.0 xyz
   end
   begin
      id 4
      name RightUpLeg
      direction 0.000000 -1.000000 0.000000
      length 15.795667
      axis 0.0 0.0 0.0 xyz
      dof rx ry rz
   end
   begin
      id 5
      name RightLeg
      direction 0.000000 -1.000000 0.000000
      length 14.766989
      axis 0.0 0.0 0.0 xyz
      dof rx ry rz
   end
   begin
      id 6
      name RightFoot
      direction 0.000000 -0.258819 0.965926
      length 4.962790
      axis 15.0 0.0 0.0 xyz
      dof rx ry rz
   end
   begin
      id 7
      name RightToeBase
      direction 0.000000 0.000000 1.000000
      length 2.952750
      axis 0.0 0.0 0.0 xyz
      dof rx ry rz
   end
   begin
      id 8
      name LeftUpLeg
      direction 0.000000 -1.000000 0.000000
      length 15.795667
      axis 0.0 0.0 0.0 xyz
      dof rx ry rz
   end
   begin
      id 9
      name LeftLeg
      direction 0.000000 -1.000000 0.000000
      length 14.766989
      axis 0.0 0.0 0.0 xyz
      dof rx ry rz
   end
   begin
      id 10
      name LeftFoot
      direction 0.000000 -0.258819 0.965926
      length 4.962790
      axis 15.0 0.0 0.0 xyz
      dof rx ry rz
   end
   begin
      id 11
      name LeftToeBase
      direction 0.000000 0.000000 1.000000
      length 2.952750
      axis 0.0 0.0 0.0 xyz
      dof rx ry rz
   end
   begin
      id 12
      name Spine
      direction 0.000000 1.000000 0.000000
      length 0.000000
      axis 0.0 0.0 0.0 xyz
      dof rx ry rz
   end
   begin
      id 13
      name Spine_dum1
      direction 0.000000 1.000000 0.000000
      length 13.207411
      axis 0.0 0.0 0.0 xyz
   end
   begin
      id 14
      name Spine_dum2
      direction 0.000000 1.000000 0.000000
      length 13.207411
      axis 0.0 0.0 0.0 xyz
   end
   begin
      id 15
      name Spine_dum3
      direction 0.000000 1.000000 0.000000
      length 19.250100
      axis 0.0 0.0 0.0 xyz
   end
   begin
      id 16
      name RightShoulder
      direction -1.000000 0.000000 0.000000
      length 8.140465
      axis 0.0 0.0 90.0 xyz
      dof rx ry rz
   end
   begin
      id 17
      name RightArm
      direction -1.000000 0.000000 0.000000
      length 10.649840
      axis 0.0 0.0 90.0 xyz
      dof rx ry rz
   end
   begin
      id 18
      name RightForeArm
      direction -1.000000 0.000000 0.000000
      length 8.304624
      axis 0.0 0.0 90.0 xyz
      dof ry rz rx
   end
   begin
      id 19
      name RightHand
      direction -1.000000 0.000000 0.000000
      length 0.000000
      axis 0.0 0.0 90.0 xyz
      dof rx ry rz
   end
   begin
      id 20
      name RightHand_dum1
      direction -1.000000 0.000000 0.000000
      length 3.937000
      axis 0.0 0.0 90.0 xyz
   end
   begin
      id 21
      name RightHand_dum2
      direction 0.000000 0.000000 0.000000
      length 0.000000
      axis 0.0 0.0 90.0 xyz
   end
   begin
      id 22
      name RightHandThumb1
      direction 0.000000 0.000000 1.000000
      length 3.937000
      axis 0.0 0.0 90.0 xyz
      dof rx rz ry
   end
   begin
      id 23
      name LeftShoulder
      direction 1.000000 0.000000 0.000000
      length 8.140465
      axis 0.0 0.0 -90.0 xyz
      dof rx ry rz
   end
   begin
      id 24
      name LeftArm
      direction 1.000000 0.000000 0.000000
      length 10.649840
      axis 0.0 0.0 -90.0 xyz
      dof rx ry rz
   end
   begin
      id 25
      name LeftForeArm
      direction 1.000000 0.000000 0.000000
      length 8.304624
      axis 0.0 0.0 -90.0 xyz
      dof ry rz rx
   end
   begin
      id 26
      name LeftHand
      direction 1.000000 0.000000 0.000000
      length 0.000000
      axis 0.0 0.0 -90.0 xyz
      dof rx ry rz
   end
   begin
      id 27
      name LeftHand_dum1
      direction 1.000000 0.000000 0.000000
      length 3.937000
      axis 0.0 0.0 -90.0 xyz
   end
   begin
      id 28
      name LeftHand_dum2
      direction 0.000000 0.000000 0.000000
      length 0.000000
      axis 0.0 0.0 -90.0 xyz
   end
   begin
      id 29
      name LeftHandThumb1
      direction 0.000000 0.000000 1.000000
      length 3.937000
      axis 0.0 0.0 -90.0 xyz
      dof rx rz ry
   end
   begin
      id 30
      name Head
      direction 0.000000 1.000000 0.000000
      length 4.527550
      axis 0.0 0.0 0.0 xyz
      dof rx ry rz
   end
:hierarchy
   begin
      root RightUpLeg_dum LeftUpLeg_dum Spine_dum
      RightUpLeg_dum RightUpLeg
      LeftUpLeg_dum LeftUpLeg
      Spine_dum Spine
      RightUpLeg RightLeg
      RightLeg RightFoot
      RightFoot RightToeBase
      LeftUpLeg LeftLeg
      LeftLeg LeftFoot
      LeftFoot LeftToeBase
      Spine Spine_dum1 Spine_dum2 Spine_dum3
      Spine_dum1 RightShoulder
      Spine_dum2 LeftShoulder
      Spine_dum3 Head
      RightShoulder RightArm
      RightArm RightForeArm
      RightForeArm RightHand
      RightHand RightHand_dum1 RightHand_dum2
      RightHand_dum2 RightHandThumb1
      LeftShoulder LeftArm
      LeftArm LeftForeArm
      LeftForeArm LeftHand
      LeftHand LeftHand_dum1 LeftHand_dum2
      LeftHand_dum2 LeftHandThumb1
   end

# File created by Blade
# Date/Time:  Wed Jan 21 19:19:18 2015
# Frame Rate: 120.000 fps
#------------------------------------------------------
:FULLY-SPECIFIED
:DEGREES
693
root -0.904713 15.091018 -2.590219 48.179268 -29.323243 20.883098
RightUpLeg -176.526731 -43.158780 35.308436
RightLeg 100.832637 -0.000000 -0.000000
RightFoot -2.774069 25.861636 21.022934
RightToeBase 22.662349 -0.000000 -0.000000
LeftUpLeg -27.426527 25.058441 22.948270
LeftLeg 16.618756 -0.000000 -0.000000
LeftFoot -32.635006 16.544463 -18.446577
LeftToeBase 8.707311 -0.000000 -0.000000
Spine -32.494314 12.790364 28.215735
RightShoulder -11.377069 22.483928 -24.390596
RightArm 2.509522 -47.558180 53.545331
RightForeArm 0.003362 -0.000000 23.973479
RightHand 32.157394 0.000000 -28.920210
RightHandThumb1 -24.326973 -0.000000 -32.862282
LeftShoulder -22.441548 -23.389253 70.464299
LeftArm 75.475878 -44.303849 -16.211657
LeftForeArm 13.964051 -0.000000 16.487135
LeftHand -19.169267 -0.000000 13.416063
LeftHandThumb1 -26.253704 0.000000 33.147579
Head -54.781371 10.945439 44.995499
694
root -0.893272 15.095510 -2.604754 48.298537 -29.727256 20.810739
RightUpLeg -176.737779 -42.472923 35.538665
RightLeg 100.629140 -0.000000 -0.000000
RightFoot -2.210399 26.127105 21.172942
RightToeBase 22.927995 -0.000000 -0.000000
LeftUpLeg -27.323776 25.151282 22.800169
LeftLeg 16.638044 -0.000000 -0.000000
LeftFoot -32.759711 16.781049 -18.486177
LeftToeBase 8.829404 -0.000000 -0.000000
Spine -32.298717 12.967665 27.973964
RightShoulder -11.346058 22.688046 -24.800872
RightArm 2.551371 -48.595493 53.598040
RightForeArm 0.390215 -0.000000 24.051853
RightHand 31.624458 0.000000 -26.787883
RightHandThumb1 -24.326973 -0.000000 -32.862282
LeftShoulder -22.582330 -23.437035 70.396484
LeftArm 75.382220 -44.328840 -16.190395
LeftForeArm 14.057263 -0.000000 16.560475
LeftHand -19.153078 0.000000 13.281825
LeftHandThumb1 -26.253704 0.000000 33.147579
Head -55.039955 11.010297 44.758640
695
root -0.881232 15.097372 -2.620615 48.458822 -30.160401 20.718232
RightUpLeg -176.969497 -41.701308 35.779731
RightLeg 100.450250 -0.000000 -0.000000
RightFoot -1.707922 26.395640 21.272967
RightToeBase 23.199451 -0.000000 -0.000000
LeftUpLeg -27.240821 25.275094 22.646630
LeftLeg 16.679360 -0.000000 -0.000000
LeftFoot -32.915513 16.997427 -18.527531
LeftToeBase 8.938157 -0.000000 -0.000000
Spine -32.141902 13.119673 27.739257
RightShoulder -11.147025 22.835134 -25.125449
RightArm 2.556146 -49.479181 53.649019
RightForeArm 0.717785 -0.000000 24.202583
RightHand 31.003560 -0.000000 -24.956493
RightHandThumb1 -24.326973 -0.000000 -32.862282
LeftShoulder -22.580284 -23.368419 70.255790
LeftArm 75.125920 -44.473387 -15.863825
LeftForeArm 13.980575 -0.000000 16.517464
LeftHand -19.198373 -0.000000 13.115978
LeftHandThumb1 -26.253704 0.000000 33.147579
Head -55.137599 11.117302 44.591209
696
root -0.870454 15.096885 -2.635598 48.613102 -30.634210 20.651808
RightUpLeg -177.221948 -40.878490 35.998982
RightLeg 100.276032 -0.000000 -0.000000
RightFoot -1.298917 26.650241 20.985481
RightToeBase 23.185720 -0.000000 -0.000000
LeftUpLeg -27.150315 25.390291 22.455261
LeftLeg 16.723215 -0.000000 -0.000000
LeftFoot -33.038857 17.251044 -18.519731
LeftToeBase 8.996693 -0.000000 -0.000000
Spine -31.979143 13.288659 27.468063
RightShoulder -11.043521 23.081319 -25.520021
RightArm 2.506541 -50.424283 53.807868
RightForeArm 0.732482 -0.000000 24.363694
RightHand 30.236389 0.000000 -23.526827
RightHandThumb1 -24.326973 -0.000000 -32.862282
LeftShoulder -22.669230 -23.314378 70.177886
LeftArm 75.009941 -44.558114 -15.842091
LeftForeArm 13.946115 -0.000000 16.598929
LeftHand -19.202241 -0.000000 13.103327
LeftHandThumb1 -26.253704 0.000000 33.147579
Head -55.265484 11.222761 44.387438
697
root -0.861214 15.095703 -2.649054 48.787667 -31.092770 20.533989
RightUpLeg -177.448280 -40.008406 36.250388
RightLeg 100.131136 -0.000000 -0.000000
RightFoot -0.891844 26.840886 20.816178
RightToeBase 23.330330 -0.000000 -0.000000
LeftUpLeg -27.040588 25.456451 22.342579
LeftLeg 16.804466 -0.000000 -0.000000
LeftFoot -33.227699 17.555512 -18.527095
LeftToeBase 9.232962 -0.000000 -0.000000
Spine -31.809425 13.497775 27.240332
RightShoulder -10.922659 23.212273 -25.915950
RightArm 2.478814 -51.147689 53.939795
RightForeArm 0.953193 0.000000 24.575366
RightHand 29.750871 -0.000000 -21.234381
RightHandThumb1 -24.326973 -0.000000 -32.862282
LeftShoulder -22.696314 -23.224642 70.019809
LeftArm 74.990860 -44.744161 -15.902311
LeftForeArm 13.934793 -0.000000 16.651961
LeftHand -19.185191 -0.000000 13.163094
LeftHandThumb1 -26.253704 0.000000 33.147579
Head -55.398242 11.299925 44.128986
